<?xml version="1.0" encoding="UTF-8"?>
<svg id="Layer_1" xmlns="http://www.w3.org/2000/svg" version="1.1" viewBox="0 0 320 320">
  <defs>
    <style>
      .st0 {
        fill: #fff;
      }

      .st1 {
        fill: #9146ff;
      }
    </style>
  </defs>
  <g>
    <path class="st1" d="M184.16,258.24l101.05-101.05V0H71.88L15.74,56.14v202.1M133.64,190.88h-50.53V22.46h179.65v123.51l-44.91,44.91h-44.91"/>
    <polyline class="st0" points="133.64 190.88 83.11 190.88 83.11 22.46 262.76 22.46 262.76 145.96 217.85 190.88 172.93 190.88"/>
    <rect class="st1" x="206.62" y="61.75" width="22.46" height="67.37"/>
    <rect class="st1" x="144.86" y="61.75" width="22.46" height="67.37"/>
  </g>
  <polygon class="st0" points="245.21 255.52 193.25 225.52 193.25 243.52 140.21 243.52 140.21 225.52 88.25 255.52 140.21 285.52 140.21 267.52 193.25 267.52 193.25 285.52 245.21 255.52"/>
  <path class="st1" d="M193.25,225.52l51.96,30-51.96,30v-18h-53.04v18l-51.96-30,51.96-30v18h53.04v-18M173.25,190.88v32.64h-13.04v-32.64l-30,17.32-51.96,30-30,17.32,30,17.32,51.96,30,30,17.32v-32.64h13.04v32.64l30-17.32,51.96-30,30-17.32-30-17.32-51.96-30-30-17.32h0Z"/>
</svg>
